<svg version="1.1" id="Layer_1" xmlns="http://www.w3.org/2000/svg" xmlns:xlink="http://www.w3.org/1999/xlink" x="0px" y="0px"
	 width="100%" viewBox="0 0 1024 1024" enable-background="new 0 0 1024 1024" xml:space="preserve">
<path fill="#000000" opacity="1.000000" stroke="none" 
	d="
M555.172546,170.686111 
	C567.864197,175.803268 578.334045,183.916336 589.263977,191.192825 
	C624.626221,214.734940 659.811340,238.543060 695.099854,262.196228 
	C698.882263,264.731537 702.143982,268.228210 706.893677,269.323456 
	C708.534302,266.818115 707.886841,264.252930 707.887146,261.847198 
	C707.890198,236.015701 707.807190,210.184204 707.760376,184.352692 
	C707.748352,177.714172 707.768555,177.690750 714.402344,177.680389 
	C725.401611,177.663223 736.400879,177.667587 747.400146,177.686249 
	C753.871521,177.697235 753.919800,177.717484 753.926697,184.498001 
	C753.964478,221.495285 754.094910,258.493317 753.876343,295.489227 
	C753.841431,301.399414 755.404785,305.179993 760.501770,308.630920 
	C784.503479,324.881409 808.186401,341.602295 832.027832,358.090637 
	C834.187073,359.583984 835.941650,360.983490 835.946411,363.934998 
	C835.972168,379.932709 836.097778,395.930176 836.170166,411.927856 
	C836.173950,412.759399 836.001831,413.590271 834.815186,414.309174 
	C832.249268,414.011536 830.731934,411.537201 828.670532,410.078156 
	C809.355469,396.406677 789.377563,383.727264 769.762512,370.506897 
	C738.966064,349.750305 708.409058,328.637543 677.561829,307.957306 
	C659.035828,295.537323 639.638123,284.364319 621.562073,271.340332 
	C600.586609,256.227295 578.203491,243.333527 557.039307,228.555405 
	C548.588684,222.654663 539.830994,217.358688 529.107788,215.903870 
	C516.471741,214.189529 504.972687,216.083618 494.402466,223.392227 
	C460.976807,246.503845 426.087097,267.374939 392.362244,290.036072 
	C365.410492,308.146057 338.216583,325.896362 311.091675,343.747772 
	C298.884979,351.781250 285.717651,358.472717 275.466949,369.220337 
	C267.850006,377.206482 263.123657,386.620758 262.672760,397.757416 
	C261.640930,423.241119 262.224243,448.742279 262.188446,474.235809 
	C262.089172,544.896973 262.364960,615.560181 261.889862,686.218567 
	C261.706390,713.504822 270.081909,736.920349 289.126495,756.358765 
	C305.510559,773.081726 325.552917,781.966187 349.023407,782.033447 
	C404.176880,782.191589 459.331268,782.020203 514.485291,782.016174 
	C575.980957,782.011658 637.478516,781.754089 698.971558,782.163330 
	C740.179810,782.437561 780.445374,746.317932 786.526489,704.338928 
	C787.382690,698.428223 787.540649,692.377380 787.556641,686.390198 
	C787.653076,650.237915 787.633972,614.085205 787.599792,577.932678 
	C787.594421,572.272705 787.462708,566.562134 785.979309,561.072449 
	C781.630371,544.977783 770.365112,535.516846 755.238159,530.232544 
	C747.360718,527.480774 739.130981,526.263977 730.699341,526.295227 
	C699.061218,526.412476 667.422241,526.282654 635.784363,526.428223 
	C605.304626,526.568420 574.825562,526.900085 544.347046,527.231445 
	C538.522461,527.294739 532.703003,527.770569 526.879395,528.011658 
	C523.807678,528.138794 521.695496,527.184143 521.711548,523.552246 
	C521.776428,508.887543 521.765442,494.222504 521.806763,479.557678 
	C521.808044,479.093872 522.073975,478.630798 522.365234,477.684052 
	C525.549255,477.684052 528.831482,477.682312 532.113647,477.684326 
	C599.942444,477.725983 667.771790,477.631622 735.599915,477.867676 
	C769.475220,477.985565 796.382080,492.363312 816.120361,519.709351 
	C829.096680,537.687195 834.808411,558.301270 834.956177,580.295410 
	C835.213623,618.623474 835.370117,656.958801 834.902649,695.283020 
	C834.510498,727.429565 824.758972,756.930237 804.087341,781.605042 
	C779.523804,810.925354 748.256653,829.319214 709.308960,832.149109 
	C682.202332,834.118652 655.018188,832.788025 627.869690,832.928528 
	C597.379639,833.086365 566.881836,833.321594 536.399231,832.813721 
	C514.742249,832.452881 493.091248,832.411926 471.436890,832.379578 
	C443.464813,832.337769 415.492401,832.328308 387.520477,832.416321 
	C370.210236,832.470825 352.839081,833.411316 335.630493,831.340637 
	C308.726349,828.103271 285.206024,816.715332 264.728973,799.211609 
	C239.614960,777.744324 223.038406,750.967285 216.354523,718.422791 
	C214.442535,709.113159 213.807281,699.621521 213.811829,690.103333 
	C213.856766,595.943298 213.728149,501.782715 214.021912,407.623444 
	C214.135773,371.126923 228.615814,341.304291 258.520294,319.813721 
	C287.887543,298.709198 318.624084,279.622772 348.747711,259.632996 
	C389.149750,232.822525 429.537079,205.988541 470.400482,179.881531 
	C484.539490,170.848312 499.761688,164.881149 516.690491,164.150894 
	C529.820068,163.584503 542.584534,165.565582 555.172546,170.686111 
z"/>
<path fill="#000000" opacity="1.000000" stroke="none" 
	d="
M726.244629,621.000000 
	C725.955261,635.310913 727.512512,649.220642 725.184937,662.917542 
	C719.382080,697.064331 690.546631,726.958313 657.131104,733.664490 
	C647.981445,735.500732 638.684448,735.464172 629.310791,735.309021 
	C603.486023,734.881592 577.649231,735.191833 551.817200,735.197449 
	C522.153381,735.203857 492.484161,734.852112 462.827850,735.321777 
	C444.447357,735.612793 427.044891,731.847473 410.272888,724.964783 
	C387.331696,715.550476 366.992645,702.156860 350.511597,683.396851 
	C330.631134,660.767334 316.918823,635.064758 312.171051,605.019104 
	C311.156311,598.597351 310.735199,592.121338 310.740509,585.607117 
	C310.764435,556.274170 311.200470,526.931458 310.597748,497.610504 
	C309.636932,450.871216 324.623077,409.840057 353.993958,374.012482 
	C386.026123,334.938568 426.250214,308.130066 475.827698,296.777985 
	C554.675354,278.723724 633.644897,310.415070 680.255493,378.006653 
	C691.603516,394.462708 699.873962,412.398254 707.103638,430.896332 
	C708.579834,434.673401 707.332520,436.220093 703.177368,435.881653 
	C691.695618,434.946442 680.231628,435.080719 668.746521,435.932648 
	C659.462463,436.621338 657.970642,435.482361 653.860596,426.994080 
	C635.246216,388.550323 605.258301,363.559204 564.516296,350.996368 
	C524.166443,338.554443 485.040131,342.126099 447.427887,360.392426 
	C403.902649,381.530365 375.831848,415.892853 363.479126,462.812225 
	C360.350037,474.697540 360.708862,486.960175 360.661499,499.094940 
	C360.545135,528.912964 360.830811,558.732483 360.911011,588.551453 
	C360.994202,619.482300 374.697571,643.680908 398.324158,662.512329 
	C418.433014,678.539978 441.642975,685.869446 467.480225,685.753174 
	C523.478149,685.501099 579.478027,685.675293 635.477112,685.715942 
	C647.448853,685.724670 657.547180,681.725220 665.657043,672.697693 
	C674.270569,663.109619 673.454346,651.546021 672.809937,640.043030 
	C672.631287,636.855469 669.627930,637.114197 667.326477,637.124512 
	C655.833374,637.176147 644.340271,637.399414 632.847656,637.370422 
	C608.381409,637.308594 583.915466,637.109924 559.449280,637.007751 
	C552.283875,636.977844 545.116028,636.995056 537.952454,637.143494 
	C506.746857,637.790039 479.369141,627.438171 455.607208,607.669800 
	C422.326996,579.982666 406.155914,543.848877 409.252716,500.998627 
	C413.017914,448.900757 441.010925,412.869629 489.587708,393.941986 
	C514.896667,384.080505 540.747253,385.502838 566.256775,395.253235 
	C572.803406,397.755554 575.795410,400.512726 575.838623,408.089844 
	C575.915710,421.591095 574.976135,435.067719 575.327087,448.563812 
	C575.427917,452.441071 576.669373,456.433716 575.068542,460.051300 
	C573.450867,460.692383 572.723938,460.021454 572.237915,459.077789 
	C565.655945,446.299347 553.908386,440.646423 540.846497,438.487061 
	C508.181519,433.086914 483.295471,444.957336 466.447540,473.048737 
	C459.289795,484.983185 457.251740,498.229614 457.302887,511.940643 
	C457.413452,541.598267 470.562897,563.674927 496.229004,578.164856 
	C507.076447,584.288879 518.850708,587.768738 531.520264,587.759705 
	C592.019287,587.716675 652.518372,587.744324 713.017395,587.748718 
	C715.850647,587.748962 718.688171,587.871094 721.515991,587.751831 
	C724.934631,587.607788 726.251892,589.077393 726.210510,592.508362 
	C726.098145,601.837463 726.214783,611.169250 726.244629,621.000000 
z"/>


</svg>